<svg version="1.1" id="_x31__réteg" xmlns="http://www.w3.org/2000/svg" xmlns:xlink="http://www.w3.org/1999/xlink" x="0" y="0" width="566.929" height="226.771" viewBox="0 0 566.929 226.771" xml:space="preserve"><defs><path id="SVGID_1_" d="M88.66 56.693h5.364V170.08H88.66z"/></defs><clipPath id="SVGID_2_"><use xlink:href="#SVGID_1_" overflow="visible"/></clipPath><linearGradient id="SVGID_3_" gradientUnits="userSpaceOnUse" x1="0" y1="226.771" x2="1" y2="226.771" gradientTransform="scale(131.8602) rotate(30.4 -418.316 -112.595)"><stop offset="0" stop-color="#00A79D"/><stop offset=".25" stop-color="#00A79D"/><stop offset=".358" stop-color="#00A09C"/><stop offset=".499" stop-color="#00929B"/><stop offset=".658" stop-color="#007D97"/><stop offset=".829" stop-color="#00618D"/><stop offset=".95" stop-color="#004B85"/><stop offset="1" stop-color="#004B85"/></linearGradient><path clip-path="url(#SVGID_2_)" fill="url(#SVGID_3_)" d="M90.033 54.352l53.48 31.376L92.65 172.42l-53.48-31.376z"/><defs><path id="SVGID_4_" d="M101.198 113.387h5.365v46.384h-5.365z"/></defs><clipPath id="SVGID_5_"><use xlink:href="#SVGID_4_" overflow="visible"/></clipPath><linearGradient id="SVGID_6_" gradientUnits="userSpaceOnUse" x1="0" y1="226.771" x2="1" y2="226.771" gradientTransform="scale(132.179) rotate(30.4 -418.507 -112.635)"><stop offset="0" stop-color="#00A79D"/><stop offset=".25" stop-color="#00A79D"/><stop offset=".358" stop-color="#00A09C"/><stop offset=".499" stop-color="#00929B"/><stop offset=".658" stop-color="#007D97"/><stop offset=".829" stop-color="#00618D"/><stop offset=".95" stop-color="#004B85"/><stop offset="1" stop-color="#004B85"/></linearGradient><path clip-path="url(#SVGID_5_)" fill="url(#SVGID_6_)" d="M102.572 111.045l24.236 14.22-21.62 36.848-24.235-14.22z"/><defs><path id="SVGID_7_" d="M113.14 113.387h5.366v33.5h-5.367z"/></defs><clipPath id="SVGID_8_"><use xlink:href="#SVGID_7_" overflow="visible"/></clipPath><linearGradient id="SVGID_9_" gradientUnits="userSpaceOnUse" x1="0" y1="226.771" x2="1" y2="226.771" gradientTransform="scale(132.3657) rotate(30.4 -418.347 -112.58)"><stop offset="0" stop-color="#00A79D"/><stop offset=".25" stop-color="#00A79D"/><stop offset=".358" stop-color="#00A09C"/><stop offset=".499" stop-color="#00929B"/><stop offset=".658" stop-color="#007D97"/><stop offset=".829" stop-color="#00618D"/><stop offset=".95" stop-color="#004B85"/><stop offset="1" stop-color="#004B85"/></linearGradient><path clip-path="url(#SVGID_8_)" fill="url(#SVGID_9_)" d="M114.513 111.044l18.615 10.92-15.996 27.267-18.615-10.92z"/><g><defs><path id="SVGID_10_" d="M125.078 113.387h5.37v23.19h-5.37z"/></defs><clipPath id="SVGID_11_"><use xlink:href="#SVGID_10_" overflow="visible"/></clipPath><linearGradient id="SVGID_12_" gradientUnits="userSpaceOnUse" x1="0" y1="226.771" x2="1" y2="226.771" gradientTransform="scale(132.6283) rotate(30.4 -418.203 -112.53)"><stop offset="0" stop-color="#00A79D"/><stop offset=".25" stop-color="#00A79D"/><stop offset=".358" stop-color="#00A09C"/><stop offset=".499" stop-color="#00929B"/><stop offset=".658" stop-color="#007D97"/><stop offset=".829" stop-color="#00618D"/><stop offset=".95" stop-color="#004B85"/><stop offset="1" stop-color="#004B85"/></linearGradient><path clip-path="url(#SVGID_11_)" fill="url(#SVGID_12_)" d="M126.453 111.043l14.116 8.283-11.497 19.594-14.116-8.28z"/></g><g><defs><path id="SVGID_13_" d="M137.02 113.387h5.37v10.307h-5.37z"/></defs><clipPath id="SVGID_14_"><use xlink:href="#SVGID_13_" overflow="visible"/></clipPath><linearGradient id="SVGID_15_" gradientUnits="userSpaceOnUse" x1="0" y1="226.771" x2="1" y2="226.771" gradientTransform="scale(133.3246) rotate(30.4 -418.04 -112.485)"><stop offset="0" stop-color="#00A79D"/><stop offset=".25" stop-color="#00A79D"/><stop offset=".358" stop-color="#00A09C"/><stop offset=".499" stop-color="#00929B"/><stop offset=".658" stop-color="#007D97"/><stop offset=".829" stop-color="#00618D"/><stop offset=".95" stop-color="#004B85"/><stop offset="1" stop-color="#004B85"/></linearGradient><path clip-path="url(#SVGID_14_)" fill="url(#SVGID_15_)" d="M138.395 111.043l8.493 4.983-5.874 10.012-8.493-4.984z"/></g><g><defs><path id="SVGID_16_" d="M148.963 113.387h5.37v4.536h-5.37z"/></defs><clipPath id="SVGID_17_"><use xlink:href="#SVGID_16_" overflow="visible"/></clipPath><linearGradient id="SVGID_18_" gradientUnits="userSpaceOnUse" x1="0" y1="226.771" x2="1" y2="226.771" gradientTransform="scale(134.0998) rotate(30.4 -417.92 -112.455)"><stop offset="0" stop-color="#00A79D"/><stop offset=".25" stop-color="#00A79D"/><stop offset=".358" stop-color="#00A09C"/><stop offset=".499" stop-color="#00929B"/><stop offset=".658" stop-color="#007D97"/><stop offset=".829" stop-color="#00618D"/><stop offset=".95" stop-color="#004B85"/><stop offset="1" stop-color="#004B85"/></linearGradient><path clip-path="url(#SVGID_17_)" fill="url(#SVGID_18_)" d="M150.338 111.043l5.974 3.505-3.355 5.718-5.974-3.505z"/></g><g><defs><path id="SVGID_19_" d="M76.114 67h5.364v46.387h-5.364z"/></defs><clipPath id="SVGID_20_"><use xlink:href="#SVGID_19_" overflow="visible"/></clipPath><linearGradient id="SVGID_21_" gradientUnits="userSpaceOnUse" x1="0" y1="226.771" x2="1" y2="226.771" gradientTransform="scale(132.1828) rotate(30.4 -418.118 -112.56)"><stop offset="0" stop-color="#00A79D"/><stop offset=".25" stop-color="#00A79D"/><stop offset=".358" stop-color="#00A09C"/><stop offset=".499" stop-color="#00929B"/><stop offset=".658" stop-color="#007D97"/><stop offset=".829" stop-color="#00618D"/><stop offset=".95" stop-color="#004B85"/><stop offset="1" stop-color="#004B85"/></linearGradient><path clip-path="url(#SVGID_20_)" fill="url(#SVGID_21_)" d="M77.488 64.66l24.236 14.22-21.62 36.848-24.236-14.22z"/></g><g><defs><path id="SVGID_22_" d="M64.172 79.886h5.37v33.5h-5.37z"/></defs><clipPath id="SVGID_23_"><use xlink:href="#SVGID_22_" overflow="visible"/></clipPath><linearGradient id="SVGID_24_" gradientUnits="userSpaceOnUse" x1="0" y1="226.771" x2="1" y2="226.771" gradientTransform="scale(132.3935) rotate(30.4 -418.275 -112.622)"><stop offset="0" stop-color="#00A79D"/><stop offset=".25" stop-color="#00A79D"/><stop offset=".358" stop-color="#00A09C"/><stop offset=".499" stop-color="#00929B"/><stop offset=".658" stop-color="#007D97"/><stop offset=".829" stop-color="#00618D"/><stop offset=".95" stop-color="#004B85"/><stop offset="1" stop-color="#004B85"/></linearGradient><path clip-path="url(#SVGID_23_)" fill="url(#SVGID_24_)" d="M65.547 77.542l18.617 10.922-15.997 27.267-18.617-10.92z"/></g><g><defs><path id="SVGID_25_" d="M52.23 90.193h5.37v23.194h-5.37z"/></defs><clipPath id="SVGID_26_"><use xlink:href="#SVGID_25_" overflow="visible"/></clipPath><linearGradient id="SVGID_27_" gradientUnits="userSpaceOnUse" x1="0" y1="226.771" x2="1" y2="226.771" gradientTransform="scale(132.643) rotate(30.4 -418.414 -112.678)"><stop offset="0" stop-color="#00A79D"/><stop offset=".25" stop-color="#00A79D"/><stop offset=".358" stop-color="#00A09C"/><stop offset=".499" stop-color="#00929B"/><stop offset=".658" stop-color="#007D97"/><stop offset=".829" stop-color="#00618D"/><stop offset=".95" stop-color="#004B85"/><stop offset="1" stop-color="#004B85"/></linearGradient><path clip-path="url(#SVGID_26_)" fill="url(#SVGID_27_)" d="M53.605 87.85l14.117 8.282-11.498 19.598-14.117-8.282z"/></g><g><defs><path id="SVGID_28_" d="M40.29 103.077h5.37v10.31h-5.37z"/></defs><clipPath id="SVGID_29_"><use xlink:href="#SVGID_28_" overflow="visible"/></clipPath><linearGradient id="SVGID_30_" gradientUnits="userSpaceOnUse" x1="0" y1="226.771" x2="1" y2="226.771" gradientTransform="scale(133.3378) rotate(30.4 -418.565 -112.742)"><stop offset="0" stop-color="#00A79D"/><stop offset=".25" stop-color="#00A79D"/><stop offset=".358" stop-color="#00A09C"/><stop offset=".499" stop-color="#00929B"/><stop offset=".658" stop-color="#007D97"/><stop offset=".829" stop-color="#00618D"/><stop offset=".95" stop-color="#004B85"/><stop offset="1" stop-color="#004B85"/></linearGradient><path clip-path="url(#SVGID_29_)" fill="url(#SVGID_30_)" d="M41.665 100.734l8.494 4.983-5.876 10.013-8.494-4.983z"/></g><g><defs><path id="SVGID_31_" d="M28.347 108.85h5.37v4.537h-5.37z"/></defs><clipPath id="SVGID_32_"><use xlink:href="#SVGID_31_" overflow="visible"/></clipPath><linearGradient id="SVGID_33_" gradientUnits="userSpaceOnUse" x1="0" y1="226.771" x2="1" y2="226.771" gradientTransform="scale(134.1187) rotate(30.4 -418.67 -112.792)"><stop offset="0" stop-color="#00A79D"/><stop offset=".25" stop-color="#00A79D"/><stop offset=".358" stop-color="#00A09C"/><stop offset=".499" stop-color="#00929B"/><stop offset=".658" stop-color="#007D97"/><stop offset=".829" stop-color="#00618D"/><stop offset=".95" stop-color="#004B85"/><stop offset="1" stop-color="#004B85"/></linearGradient><path clip-path="url(#SVGID_32_)" fill="url(#SVGID_33_)" d="M29.722 106.506l5.975 3.505-3.356 5.72-5.974-3.505z"/></g><g><defs><path id="SVGID_34_" d="M0 0h566.93v226.77H0z"/></defs><clipPath id="SVGID_35_"><use xlink:href="#SVGID_34_" overflow="visible"/></clipPath><path clip-path="url(#SVGID_35_)" fill="#414042" d="M170.08 127.5l2.79-3.3c4.154 3.748 8.135 5.627 13.656 5.627 5.35 0 8.88-2.845 8.88-6.77v-.112c0-3.696-1.993-5.803-10.357-7.57-9.165-1.99-13.377-4.95-13.377-11.498v-.106c0-6.266 5.517-10.874 13.09-10.874 5.803 0 9.958 1.65 13.998 4.9l-2.617 3.466c-3.7-3.012-7.396-4.32-11.496-4.32-5.177 0-8.478 2.845-8.478 6.425v.115c0 3.758 2.047 5.866 10.812 7.743 8.88 1.93 12.972 5.18 12.972 11.263v.114c0 6.828-5.69 11.27-13.6 11.27-6.314.003-11.494-2.105-16.274-6.372M220.65 97.62H207.28v-4.154h31.298v4.154H225.2v35.685h-4.55zM257.2 93.185h4.21l18.154 40.12h-4.833l-4.67-10.527h-21.678l-4.723 10.527h-4.61l18.15-40.12zm11.096 25.492l-9.046-20.26-9.106 20.26h18.152zM293.438 97.62h-13.375v-4.154h31.294v4.154H297.99v35.685h-4.552zM320.353 93.466h4.493v35.685h22.42v4.155h-26.913zM352.325 113.5v-.114c0-10.983 8.253-20.604 20.375-20.604 12.124 0 20.262 9.508 20.262 20.488v.116c0 10.982-8.253 20.604-20.373 20.604-12.127 0-20.265-9.51-20.265-20.49m35.965 0v-.114c0-9.05-6.6-16.444-15.7-16.444-9.107 0-15.595 7.28-15.595 16.328v.116c0 9.05 6.604 16.442 15.705 16.442 9.106 0 15.59-7.28 15.59-16.33M401.636 113.5v-.114c0-10.93 8.022-20.604 19.98-20.604 6.715 0 10.867 1.93 14.844 5.295l-2.897 3.414c-3.072-2.67-6.488-4.548-12.12-4.548-8.824 0-15.136 7.455-15.136 16.328v.116c0 9.498 6.093 16.557 15.767 16.557 4.545 0 8.76-1.765 11.49-3.986v-9.895H421.44v-4.044h16.44v15.878c-3.694 3.303-9.27 6.095-15.985 6.095-12.518 0-20.26-9.114-20.26-20.49M449.9 93.466h4.493v39.84H449.9zM465.377 113.5v-.114c0-11.264 8.43-20.604 20.148-20.604 7.222 0 11.55 2.563 15.537 6.32l-3.073 3.3c-3.363-3.184-7.122-5.46-12.518-5.46-8.824 0-15.424 7.164-15.424 16.328v.116c0 9.217 6.653 16.442 15.424 16.442 5.46 0 9.042-2.107 12.86-5.75l2.957 2.905c-4.15 4.215-8.71 7.007-15.934 7.007-11.498 0-19.98-9.053-19.98-20.49M508.705 127.5l2.793-3.3c4.15 3.748 8.138 5.627 13.647 5.627 5.358 0 8.887-2.845 8.887-6.77v-.112c0-3.696-1.993-5.803-10.36-7.57-9.165-1.99-13.375-4.95-13.375-11.498v-.106c0-6.266 5.52-10.874 13.09-10.874 5.802 0 9.96 1.65 13.998 4.9l-2.616 3.466c-3.702-3.012-7.403-4.32-11.503-4.32-5.18 0-8.468 2.845-8.468 6.425v.115c0 3.758 2.043 5.866 10.803 7.743 8.88 1.93 12.98 5.18 12.98 11.263v.114c0 6.828-5.692 11.27-13.603 11.27-6.316.003-11.49-2.105-16.275-6.372"/></g></svg>