<?xml version="1.0" encoding="UTF-8" standalone="no"?>
<svg width="98px" height="28px" viewBox="0 0 98 28" version="1.1" xmlns="http://www.w3.org/2000/svg" xmlns:xlink="http://www.w3.org/1999/xlink">
    <!-- Generator: sketchtool 42 (36781) - http://www.bohemiancoding.com/sketch -->
    <title>72C94A4B-B23E-4E11-B3A8-0337557B5A96</title>
    <desc>Created with sketchtool.</desc>
    <defs></defs>
    <g id="Page-1" stroke="none" stroke-width="1" fill="none" fill-rule="evenodd">
        <g id="W.up-Landing-page" transform="translate(-108.000000, -121.000000)">
            <g id="Hero" transform="translate(40.000000, 60.000000)">
                <g id="WUP_rgb_red-05" transform="translate(68.000000, 61.000000)">
                    <polyline id="Fill-1" fill="#4B4B4B" points="30.352153 27.1303846 23.5135738 27.1303846 18.7431694 10.0563077 13.9347432 27.1303846 7.09669945 27.1303846 0.372185792 0.460923077 7.02119126 0.460923077 10.9288743 18.8192308 15.7378361 0.460923077 21.6344372 0.460923077 26.5944153 18.8192308 30.4640765 0.460923077 37.0755956 0.460923077 30.352153 27.1303846"></polyline>
                    <polygon id="Fill-2" fill="#CE232A" points="36.1935956 27.1416923 41.8620656 27.1416923 41.8620656 21.1173846 36.1935956 21.1173846"></polygon>
                    <path d="M68.4377377,16.5910769 C68.4377377,23.2776923 64.1916066,27.7345385 57.0167213,27.7345385 C50.7795301,27.7345385 45.7836721,24.4100769 45.7836721,17.045 L45.7836721,0.460923077 L52.4706995,0.460923077 L52.4706995,17.8004615 C52.4706995,21.3505385 54.2748634,22.2196154 57.2405683,22.2196154 C60.6239781,22.2196154 61.7871257,20.5202308 61.7871257,17.4601538 L61.7871257,0.460923077 L68.4377377,0.460923077 L68.4377377,16.5910769" id="Fill-3" fill="#4B4B4B"></path>
                    <path d="M81.5820546,13.4556154 L85.9379672,13.4556154 C88.9443716,13.4556154 91.0489617,12.7383846 91.0489617,9.26261538 C91.0489617,5.40992308 87.8931475,5.37223077 85.8260437,5.37223077 L81.5820546,5.37223077 L81.5820546,13.4556154 L81.5820546,13.4556154 Z M88.0800437,0.460923077 C94.3541858,0.460923077 97.6604809,3.44507692 97.6604809,9.56469231 C97.6604809,16.3266923 91.7612022,18.4040769 86.953847,18.4040769 L81.5820546,18.4040769 L81.5820546,27.1303846 L74.9314426,27.1303846 L74.9314426,0.460923077 L88.0800437,0.460923077 L88.0800437,0.460923077 Z" id="Fill-4" fill="#4B4B4B"></path>
                </g>
            </g>
        </g>
    </g>
</svg>